PathFileType	4	(X/Y/Z)	Patient4_TMGait_0pt2_01_left_19.trc.trc
DataRate	CameraRate	NumFrames	NumMarkers	Units	OrigDataRate	OrigDataStartFrame	OrigNumFrames
44.164037854890	44.164037854890	4	33	mm	44.164037854890	71	       141
Frame#	Time	Sacral			L.Shoulder			Chest			R.Shoulder			Neck			R.ASIS			L.ASIS			R.Thigh.Superior			R.Thigh.Lateral			R.Thigh.Inferior			R.Patella			L.Thigh.Superior			L.Thigh.Lateral			L.Thigh.Inferior			L.Patella			L.Shank.Superior			L.Shank.Lateral			L.Shank.Inferior			R.Shank.Superior			R.Shank.Lateral			R.Shank.Inferior			R.Heel			R.Midfoot.Superior			R.Midfoot.Lateral			R.Toe			L.Heel			L.Midfoot.Lateral			L.Midfoot.Superior			L.Toe			L.Elbow			L.Wrist			R.Elbow			R.Wrist			
		X1	Y1	Z1	X2	Y2	Z2	X3	Y3	Z3	X4	Y4	Z4	X5	Y5	Z5	X6	Y6	Z6	X7	Y7	Z7	X8	Y8	Z8	X9	Y9	Z9	X10	Y10	Z10	X11	Y11	Z11	X12	Y12	Z12	X13	Y13	Z13	X14	Y14	Z14	X15	Y15	Z15	X16	Y16	Z16	X17	Y17	Z17	X18	Y18	Z18	X19	Y19	Z19	X20	Y20	Z20	X21	Y21	Z21	X22	Y22	Z22	X23	Y23	Z23	X24	Y24	Z24	X25	Y25	Z25	X26	Y26	Z26	X27	Y27	Z27	X28	Y28	Z28	X29	Y29	Z29	X30	Y30	Z30	X31	Y31	Z31	X32	Y32	Z32	X33	Y33	Z33	

71	45.335000000000	644.794022068351	1013.730490787183	419.125157361975	893.807079293668	1436.999266390905	297.844279908043	947.688935577772	1351.892777468478	473.483853819413	828.714910094876	1422.033093044646	626.607981279570	845.385559158997	1491.532121592060	452.204392900924	845.645114266157	940.568942922662	580.987631441402	884.000870630167	954.116051775398	308.305309384472	915.947288761962	756.338143608609	557.614645227771	852.161814293694	641.566900965215	621.558749646746	939.626596665330	594.484649015540	546.317278034045	957.635948118679	501.225381000412	564.141267300243	912.575279860848	738.192423620521	357.135913517414	832.476634607205	618.421738051672	287.031149305682	897.715234462898	544.174733279145	370.792421153875	893.095723618637	472.876828294890	381.329017096322	855.363389213954	401.291796195619	369.020729751967	759.944327472945	297.647480944028	307.746963899545	781.384749508559	183.870526531999	386.407756812738	916.352376609235	415.794125457717	579.908315600980	832.911666612353	327.524274111719	651.751940797740	871.127429235019	221.980821304625	604.330880984746	728.755642194193	54.678539788337	591.911589001960	902.413477091939	110.522110000328	625.204939652887	815.076642687962	46.081271054777	663.279729860720	1022.056623257359	60.794426893786	648.924192788694	632.289480724612	38.277271523730	414.849865880031	711.800691129991	35.642112914463	339.388417689216	794.568439042102	94.729857077941	373.528041841377	923.751014507090	40.180267851355	352.057036815778	994.824519328677	1140.708807890646	116.281258952646	1242.914644447341	1084.991208578376	164.031052565445	669.095991657281	1100.292300149087	688.775250993532	667.879242886323	839.851403618926	697.354633223956	
72	45.357642857143	643.890968247391	1014.908146618756	420.396352204926	897.094575160497	1436.756384753710	301.673183192932	947.761869551596	1351.891767392425	478.408712856600	826.710056376537	1423.319787368996	629.364911878251	847.397101364984	1492.033139890081	455.076262400755	842.214644026701	941.440581253454	585.582635285638	884.401315474751	954.140370869048	313.207743302218	912.165005768729	757.202054628646	564.019708074129	847.183141971836	642.494787815783	626.969344206751	935.977916454878	595.893343168877	553.079068175531	953.989917766141	505.053897632151	569.988880828006	909.876459070254	737.498103835252	361.492102864196	829.456424005530	619.025470747706	289.372630323464	893.031945995653	543.767502853675	373.292642993360	887.520171499856	472.770367976991	383.336201751173	850.139280035975	401.553457211843	370.410461295182	755.068837037004	297.972769412034	308.518338399664	776.529001655985	183.995214563917	386.918241825829	917.636872701652	418.032919139927	585.130434962547	839.579410344663	325.008948950712	657.608860281315	882.549895278789	221.520992051156	608.860933334139	747.644580903787	48.588892198716	597.223209671406	920.221274512237	109.796992352117	628.343280371457	835.454978823146	41.711846116782	666.919142854091	1041.927229360986	63.402784532948	648.878355530570	627.672038256899	38.180384254275	414.847731308095	707.188162444127	35.583104816194	339.375124143799	789.939944005972	94.740322829701	373.617138097966	919.151972118479	40.249790280732	352.134160411575	1002.282059734970	1140.724912252120	123.047035254411	1250.787458123830	1092.130744426666	174.406898111222	667.802502073802	1100.499043405334	689.140927270221	674.087707281838	839.977404365353	698.611552385907	
73	45.380285714286	643.287854131701	1015.517075011457	422.480653257497	899.796283953390	1436.056260086773	305.842208812338	947.959331157352	1351.505089488662	483.437787549034	825.404500366532	1424.109989750459	632.658841968908	849.382228712452	1492.087761390549	458.446163772476	839.549501581055	941.597146037431	590.191041917128	884.796835630868	953.919726840191	318.139487437473	908.964870495205	757.201114036294	569.903308199979	842.940760011396	642.639053111245	631.916937874969	932.653472388057	596.453510491540	558.950497127630	950.279415662834	507.728465075574	575.040871739744	907.685971408561	736.632192478129	365.718182032437	826.946389070667	619.352998350384	291.872339534261	889.077266390200	543.132013805602	375.850825079119	882.747127892843	472.378091839468	385.415513810128	845.542378257607	401.535940619241	371.918414281795	750.593833608495	298.224088253370	309.396423886051	771.880228626573	183.992944414204	387.476437516515	918.238221086683	419.444436886388	589.698122034817	844.928395171554	322.793692842938	662.753945427012	891.481403097543	221.221076616291	612.726859009633	762.542606929626	44.781301296915	601.831340972682	934.335228818118	109.218168937176	630.840064888974	851.521745272094	38.949777763875	670.020692884968	1057.210104939305	64.917735737401	648.577052301773	623.058792308422	38.086742485505	414.844966865330	702.579622365775	35.521581444186	339.367297753162	785.314957240151	94.742661189283	373.717002087164	914.552912597887	40.313634819815	352.207743507699	1008.357977177909	1139.544784404309	130.670668347784	1257.049993489969	1096.949161525919	185.259454028047	667.892948342528	1099.954196306149	690.698744259849	681.887157209526	839.509505982930	701.168120962794	
74	45.402928571429	643.000784378216	1015.632212603913	425.407747922169	901.952221965738	1434.975218352109	310.327132516180	948.347276299219	1350.782698047997	488.557610425714	824.864453892091	1424.437407402882	636.512343862889	851.360822265911	1491.751759244427	462.321442584631	837.708973160921	941.110426900819	594.828375430721	885.205878244231	953.502996963534	323.079413848664	906.446529942088	756.429921247972	575.199027594758	839.526101303159	642.082822773534	636.347317464629	929.745335521507	596.236607032848	563.888008667729	946.674891727072	509.254802151470	579.264085093184	906.032845935769	735.606918409807	369.769899302888	824.897589311402	619.433636847257	294.544494029076	885.821624444754	542.284528550588	378.460638871930	878.749039974305	471.723796102949	387.576569783337	841.542204754931	401.269428575477	373.551436025983	746.491028767486	298.430262717089	310.386306226986	767.430514181337	183.883829956291	388.075535021821	918.225048517422	419.997486439527	593.540288127543	848.856659219452	320.731040801494	667.065194704182	897.855799453637	220.818860474059	615.795330766470	773.220369206574	42.707912632417	605.556711106118	944.612586933124	108.496881794740	632.543855261246	863.084303790974	37.369537787252	672.474340335632	1067.955857535519	65.156036289483	648.009025724428	618.451882322413	38.006807955109	414.834081297684	697.978282435355	35.463665737953	339.364318017605	780.698656147393	94.741550345538	373.820361841471	909.953962129860	40.368007754245	352.274506568087	1013.010215449059	1137.275845789711	138.989007882737	1261.751469412070	1099.432729563622	196.398957488014	669.263040258952	1098.817319112065	693.557618311809	690.817116538072	838.630239831175	705.129518390357	
